<svg xmlns="http://www.w3.org/2000/svg" version="1.1" xmlns:xlink="http://www.w3.org/1999/xlink" width="1000" height="1000"><style>
    #light-icon {
      display: inline;
    }
    #dark-icon {
      display: none;
    }

    @media (prefers-color-scheme: dark) {
      #light-icon {
        display: none;
      }
      #dark-icon {
        display: inline;
      }
    }
  </style><g id="light-icon"><svg xmlns="http://www.w3.org/2000/svg" version="1.1" xmlns:xlink="http://www.w3.org/1999/xlink" width="1000" height="1000"><g><g transform="matrix(5,0,0,5,0,0)"><svg xmlns="http://www.w3.org/2000/svg" id="Слой_2" data-name="Слой 2" viewBox="0 0 200 200" width="200" height="200"><defs><style>.cls-1{fill:#355872;stroke:#355872;stroke-linecap:square;stroke-linejoin:round;stroke-width:8px;}.cls-2{fill:#7acece;}</style></defs><path class="cls-1" d="M46,123.2a25.55,25.55,0,0,1-12.44-2.85,19.14,19.14,0,0,1-8-8.09A26.06,26.06,0,0,1,22.81,100a27.75,27.75,0,0,1,1.56-9.54A20.38,20.38,0,0,1,29,83.07a19.62,19.62,0,0,1,7.33-4.67A27.66,27.66,0,0,1,46,76.8a28.89,28.89,0,0,1,6.6.77,19.6,19.6,0,0,1,5.69,2.24,5.18,5.18,0,0,1,2.18,2.27,4.53,4.53,0,0,1,.35,2.62A4.6,4.6,0,0,1,59.7,87a3.89,3.89,0,0,1-2.14,1.28,4.06,4.06,0,0,1-2.88-.61,14.44,14.44,0,0,0-4-1.66,18.12,18.12,0,0,0-4.32-.52,14.1,14.1,0,0,0-7.2,1.7,10.51,10.51,0,0,0-4.35,4.86A19.15,19.15,0,0,0,33.37,100a19.44,19.44,0,0,0,1.44,7.87,10.42,10.42,0,0,0,4.35,5,14.1,14.1,0,0,0,7.2,1.7,17.6,17.6,0,0,0,4.19-.52,16.43,16.43,0,0,0,4.13-1.6,4.81,4.81,0,0,1,2.94-.6,3.76,3.76,0,0,1,2.15,1.15,4.58,4.58,0,0,1,1.12,2.24,4.41,4.41,0,0,1-.26,2.56,4.69,4.69,0,0,1-1.92,2.14,19.1,19.1,0,0,1-5.82,2.47A28.27,28.27,0,0,1,46,123.2Z"></path><path class="cls-1" d="M85,123.07a5.28,5.28,0,0,1-3.3-1,6.22,6.22,0,0,1-2-3L66.77,82.75a4.3,4.3,0,0,1,.29-4.13c.79-1.13,2.14-1.69,4.06-1.69a5,5,0,0,1,3.27,1,6.21,6.21,0,0,1,1.79,3l10.5,31.42H83.93L95.12,80.9a6.59,6.59,0,0,1,1.86-3,4.55,4.55,0,0,1,3-1,4.21,4.21,0,0,1,2.88,1A7,7,0,0,1,104.66,81l10.69,31.36H113L123.67,80.9a6.67,6.67,0,0,1,1.85-3,4.77,4.77,0,0,1,3.14-1,4.1,4.1,0,0,1,3.65,1.69,4.33,4.33,0,0,1,.25,4.13l-13,36.35a7.26,7.26,0,0,1-2,3,5,5,0,0,1-3.24,1,5.25,5.25,0,0,1-3.29-1,6.22,6.22,0,0,1-2-3L99,90.5h1.53L90.2,119.1a6.94,6.94,0,0,1-2,3A5.08,5.08,0,0,1,85,123.07Z"></path><path class="cls-1" d="M162.2,123.2a25.62,25.62,0,0,1-12.45-2.85,19.19,19.19,0,0,1-8-8.09A26.18,26.18,0,0,1,139,100a27.51,27.51,0,0,1,1.57-9.54,20.36,20.36,0,0,1,4.57-7.36,19.7,19.7,0,0,1,7.33-4.67,27.68,27.68,0,0,1,9.7-1.6,28.8,28.8,0,0,1,6.59.77,19.66,19.66,0,0,1,5.7,2.24,5.15,5.15,0,0,1,2.17,2.27A4.45,4.45,0,0,1,177,84.7,4.66,4.66,0,0,1,175.93,87a4,4,0,0,1-2.15,1.28,4.07,4.07,0,0,1-2.88-.61,14.31,14.31,0,0,0-4-1.66,18.12,18.12,0,0,0-4.32-.52,14.1,14.1,0,0,0-7.2,1.7A10.51,10.51,0,0,0,151,92.06a19.15,19.15,0,0,0-1.44,7.91,19.44,19.44,0,0,0,1.44,7.87,10.42,10.42,0,0,0,4.35,5,14.1,14.1,0,0,0,7.2,1.7,17.54,17.54,0,0,0,4.19-.52,16.28,16.28,0,0,0,4.13-1.6,4.81,4.81,0,0,1,2.94-.6,3.73,3.73,0,0,1,2.15,1.15,4.55,4.55,0,0,1,.86,4.8,4.69,4.69,0,0,1-1.92,2.14,19.1,19.1,0,0,1-5.82,2.47A28.19,28.19,0,0,1,162.2,123.2Z"></path><path class="cls-1" d="M45.65,82A25.56,25.56,0,0,1,33.2,79.18a19.14,19.14,0,0,1-8-8.09A26.06,26.06,0,0,1,22.48,58.8,27.75,27.75,0,0,1,24,49.26a20.47,20.47,0,0,1,4.58-7.36A19.82,19.82,0,0,1,36,37.23a27.91,27.91,0,0,1,9.7-1.6,28.87,28.87,0,0,1,6.59.77,19.6,19.6,0,0,1,5.69,2.24,5.12,5.12,0,0,1,2.18,2.27,4.58,4.58,0,0,1-.74,4.93,3.89,3.89,0,0,1-2.14,1.28,4.06,4.06,0,0,1-2.88-.61,14.44,14.44,0,0,0-4-1.66A18.12,18.12,0,0,0,46,44.34,14.1,14.1,0,0,0,38.83,46a10.48,10.48,0,0,0-4.35,4.87A19.07,19.07,0,0,0,33,58.8a19.44,19.44,0,0,0,1.44,7.87,10.42,10.42,0,0,0,4.35,5,14.1,14.1,0,0,0,7.2,1.7,18.1,18.1,0,0,0,4.19-.51,17.07,17.07,0,0,0,4.13-1.6,4.75,4.75,0,0,1,2.94-.61,3.73,3.73,0,0,1,2.15,1.15A4.54,4.54,0,0,1,60.56,74a4.41,4.41,0,0,1-.26,2.56,4.64,4.64,0,0,1-1.92,2.14,19.1,19.1,0,0,1-5.82,2.47A28.25,28.25,0,0,1,45.65,82Z"></path><path class="cls-1" d="M84.62,81.9a5.28,5.28,0,0,1-3.3-1,6.23,6.23,0,0,1-1.95-3L66.44,41.58a4.28,4.28,0,0,1,.29-4.12c.79-1.13,2.15-1.7,4.07-1.7a5,5,0,0,1,3.26,1,6.14,6.14,0,0,1,1.79,3l10.5,31.42H83.6L94.8,39.73a6.58,6.58,0,0,1,1.85-3,4.55,4.55,0,0,1,3-1,4.21,4.21,0,0,1,2.88,1,6.9,6.9,0,0,1,1.79,3.07L115,71.15h-2.37l10.69-31.42a6.59,6.59,0,0,1,1.86-3,4.72,4.72,0,0,1,3.13-1,4.1,4.1,0,0,1,3.65,1.7,4.33,4.33,0,0,1,.26,4.12l-13,36.36a7.29,7.29,0,0,1-2,3,5,5,0,0,1-3.23,1,5.26,5.26,0,0,1-3.3-1,6.23,6.23,0,0,1-2-3L98.64,49.33h1.53L89.87,77.94a6.86,6.86,0,0,1-2,3A5.11,5.11,0,0,1,84.62,81.9Z"></path><path class="cls-1" d="M161.87,82a25.62,25.62,0,0,1-12.45-2.85,19.19,19.19,0,0,1-8-8.09A26.18,26.18,0,0,1,138.7,58.8a27.51,27.51,0,0,1,1.57-9.54,20.44,20.44,0,0,1,4.57-7.36,19.82,19.82,0,0,1,7.33-4.67,28,28,0,0,1,9.7-1.6,28.74,28.74,0,0,1,6.59.77,19.55,19.55,0,0,1,5.7,2.24,5.15,5.15,0,0,1,2.17,2.27,4.48,4.48,0,0,1,.35,2.63,4.59,4.59,0,0,1-1.08,2.3,3.92,3.92,0,0,1-2.15,1.28,4.07,4.07,0,0,1-2.88-.61,14.31,14.31,0,0,0-4-1.66,18,18,0,0,0-4.32-.51,14.1,14.1,0,0,0-7.2,1.69,10.48,10.48,0,0,0-4.35,4.87,19.07,19.07,0,0,0-1.44,7.9,19.44,19.44,0,0,0,1.44,7.87,10.42,10.42,0,0,0,4.35,5,14.1,14.1,0,0,0,7.2,1.7,18.19,18.19,0,0,0,4.2-.51,17.16,17.16,0,0,0,4.12-1.6,4.77,4.77,0,0,1,3-.61,3.73,3.73,0,0,1,2.14,1.15A4.46,4.46,0,0,1,176.78,74a4.41,4.41,0,0,1-.25,2.56,4.72,4.72,0,0,1-1.93,2.14,19.1,19.1,0,0,1-5.82,2.47A28.19,28.19,0,0,1,161.87,82Z"></path><path class="cls-1" d="M46,163.36a25.55,25.55,0,0,1-12.44-2.84,19.16,19.16,0,0,1-8-8.1,26,26,0,0,1-2.75-12.29,27.69,27.69,0,0,1,1.56-9.53A20.29,20.29,0,0,1,29,123.24a19.64,19.64,0,0,1,7.33-4.68A27.89,27.89,0,0,1,46,117a28.89,28.89,0,0,1,6.6.77A19.6,19.6,0,0,1,58.26,120a5.18,5.18,0,0,1,2.18,2.27,4.58,4.58,0,0,1-.74,4.93,3.89,3.89,0,0,1-2.14,1.28,4.06,4.06,0,0,1-2.88-.61,14.74,14.74,0,0,0-4-1.66,18.12,18.12,0,0,0-4.32-.51,14.1,14.1,0,0,0-7.2,1.69,10.58,10.58,0,0,0-4.35,4.87,19.1,19.1,0,0,0-1.44,7.9A19.41,19.41,0,0,0,34.81,148a10.42,10.42,0,0,0,4.35,5,14.1,14.1,0,0,0,7.2,1.7,18.1,18.1,0,0,0,4.19-.51,16.82,16.82,0,0,0,4.13-1.6,4.75,4.75,0,0,1,2.94-.61,3.76,3.76,0,0,1,2.15,1.15,4.62,4.62,0,0,1,1.12,2.24,4.4,4.4,0,0,1-.26,2.56A4.71,4.71,0,0,1,58.71,160a19.34,19.34,0,0,1-5.82,2.46A27.8,27.8,0,0,1,46,163.36Z"></path><path class="cls-1" d="M85,163.24a5.28,5.28,0,0,1-3.3-1,6.27,6.27,0,0,1-2-3L66.77,122.92a4.3,4.3,0,0,1,.29-4.13c.79-1.13,2.14-1.7,4.06-1.7a5,5,0,0,1,3.27,1,6.26,6.26,0,0,1,1.79,3l10.5,31.42H83.93l11.19-31.42a6.65,6.65,0,0,1,1.86-3,4.55,4.55,0,0,1,3-1,4.21,4.21,0,0,1,2.88,1,7.06,7.06,0,0,1,1.79,3.07l10.69,31.36H113l10.69-31.42a6.72,6.72,0,0,1,1.85-3,4.77,4.77,0,0,1,3.14-1,4.11,4.11,0,0,1,3.65,1.7,4.33,4.33,0,0,1,.25,4.13l-13,36.35a7.33,7.33,0,0,1-2,3,5,5,0,0,1-3.24,1,5.25,5.25,0,0,1-3.29-1,6.27,6.27,0,0,1-2-3L99,130.66h1.53L90.2,159.27a7,7,0,0,1-2,3A5.08,5.08,0,0,1,85,163.24Z"></path><path class="cls-1" d="M162.2,163.36a25.61,25.61,0,0,1-12.45-2.84,19.22,19.22,0,0,1-8-8.1A26.15,26.15,0,0,1,139,140.13a27.45,27.45,0,0,1,1.57-9.53,20.27,20.27,0,0,1,4.57-7.36,19.72,19.72,0,0,1,7.33-4.68,27.91,27.91,0,0,1,9.7-1.6,28.8,28.8,0,0,1,6.59.77,19.66,19.66,0,0,1,5.7,2.24,5.15,5.15,0,0,1,2.17,2.27,4.48,4.48,0,0,1,.35,2.63,4.67,4.67,0,0,1-1.08,2.3,4,4,0,0,1-2.15,1.28,4.07,4.07,0,0,1-2.88-.61,14.62,14.62,0,0,0-4-1.66,18.12,18.12,0,0,0-4.32-.51,14.1,14.1,0,0,0-7.2,1.69,10.58,10.58,0,0,0-4.35,4.87,19.1,19.1,0,0,0-1.44,7.9A19.41,19.41,0,0,0,151,148a10.42,10.42,0,0,0,4.35,5,14.1,14.1,0,0,0,7.2,1.7,18,18,0,0,0,4.19-.51,16.67,16.67,0,0,0,4.13-1.6,4.75,4.75,0,0,1,2.94-.61,3.73,3.73,0,0,1,2.15,1.15,4.46,4.46,0,0,1,1.12,2.24,4.4,4.4,0,0,1-.26,2.56,4.71,4.71,0,0,1-1.92,2.15,19.34,19.34,0,0,1-5.82,2.46A27.72,27.72,0,0,1,162.2,163.36Z"></path><path class="cls-2" d="M46,123.2a25.55,25.55,0,0,1-12.44-2.85,19.14,19.14,0,0,1-8-8.09A26.06,26.06,0,0,1,22.81,100a27.75,27.75,0,0,1,1.56-9.54A20.38,20.38,0,0,1,29,83.07a19.62,19.62,0,0,1,7.33-4.67A27.66,27.66,0,0,1,46,76.8a28.89,28.89,0,0,1,6.6.77,19.6,19.6,0,0,1,5.69,2.24,5.18,5.18,0,0,1,2.18,2.27,4.53,4.53,0,0,1,.35,2.62A4.6,4.6,0,0,1,59.7,87a3.89,3.89,0,0,1-2.14,1.28,4.06,4.06,0,0,1-2.88-.61,14.44,14.44,0,0,0-4-1.66,18.12,18.12,0,0,0-4.32-.52,14.1,14.1,0,0,0-7.2,1.7,10.51,10.51,0,0,0-4.35,4.86A19.15,19.15,0,0,0,33.37,100a19.44,19.44,0,0,0,1.44,7.87,10.42,10.42,0,0,0,4.35,5,14.1,14.1,0,0,0,7.2,1.7,17.6,17.6,0,0,0,4.19-.52,16.43,16.43,0,0,0,4.13-1.6,4.81,4.81,0,0,1,2.94-.6,3.76,3.76,0,0,1,2.15,1.15,4.58,4.58,0,0,1,1.12,2.24,4.41,4.41,0,0,1-.26,2.56,4.69,4.69,0,0,1-1.92,2.14,19.1,19.1,0,0,1-5.82,2.47A28.27,28.27,0,0,1,46,123.2Z"></path><path class="cls-2" d="M85,123.07a5.28,5.28,0,0,1-3.3-1,6.22,6.22,0,0,1-2-3L66.77,82.75a4.3,4.3,0,0,1,.29-4.13c.79-1.13,2.14-1.69,4.06-1.69a5,5,0,0,1,3.27,1,6.21,6.21,0,0,1,1.79,3l10.5,31.42H83.93L95.12,80.9a6.59,6.59,0,0,1,1.86-3,4.55,4.55,0,0,1,3-1,4.21,4.21,0,0,1,2.88,1A7,7,0,0,1,104.66,81l10.69,31.36H113L123.67,80.9a6.67,6.67,0,0,1,1.85-3,4.77,4.77,0,0,1,3.14-1,4.1,4.1,0,0,1,3.65,1.69,4.33,4.33,0,0,1,.25,4.13l-13,36.35a7.26,7.26,0,0,1-2,3,5,5,0,0,1-3.24,1,5.25,5.25,0,0,1-3.29-1,6.22,6.22,0,0,1-2-3L99,90.5h1.53L90.2,119.1a6.94,6.94,0,0,1-2,3A5.08,5.08,0,0,1,85,123.07Z"></path><path class="cls-2" d="M162.2,123.2a25.62,25.62,0,0,1-12.45-2.85,19.19,19.19,0,0,1-8-8.09A26.18,26.18,0,0,1,139,100a27.51,27.51,0,0,1,1.57-9.54,20.36,20.36,0,0,1,4.57-7.36,19.7,19.7,0,0,1,7.33-4.67,27.68,27.68,0,0,1,9.7-1.6,28.8,28.8,0,0,1,6.59.77,19.66,19.66,0,0,1,5.7,2.24,5.15,5.15,0,0,1,2.17,2.27A4.45,4.45,0,0,1,177,84.7,4.66,4.66,0,0,1,175.93,87a4,4,0,0,1-2.15,1.28,4.07,4.07,0,0,1-2.88-.61,14.31,14.31,0,0,0-4-1.66,18.12,18.12,0,0,0-4.32-.52,14.1,14.1,0,0,0-7.2,1.7A10.51,10.51,0,0,0,151,92.06a19.15,19.15,0,0,0-1.44,7.91,19.44,19.44,0,0,0,1.44,7.87,10.42,10.42,0,0,0,4.35,5,14.1,14.1,0,0,0,7.2,1.7,17.54,17.54,0,0,0,4.19-.52,16.28,16.28,0,0,0,4.13-1.6,4.81,4.81,0,0,1,2.94-.6,3.73,3.73,0,0,1,2.15,1.15,4.55,4.55,0,0,1,.86,4.8,4.69,4.69,0,0,1-1.92,2.14,19.1,19.1,0,0,1-5.82,2.47A28.19,28.19,0,0,1,162.2,123.2Z"></path></svg></g></g></svg></g><g id="dark-icon"><svg xmlns="http://www.w3.org/2000/svg" version="1.1" xmlns:xlink="http://www.w3.org/1999/xlink" width="1000" height="1000"><g><g transform="matrix(5,0,0,5,0,0)"><svg xmlns="http://www.w3.org/2000/svg" id="Слой_3" data-name="Слой 3" viewBox="0 0 200 200" width="200" height="200"><defs><style>.cls-1{fill:#7acece;stroke:#7acece;stroke-linecap:square;stroke-linejoin:round;stroke-width:8px;}.cls-2{fill:#355872;}</style></defs><path class="cls-1" d="M46.14,123.2a25.62,25.62,0,0,1-12.45-2.85,19.19,19.19,0,0,1-8-8.09A26.18,26.18,0,0,1,23,100a27.51,27.51,0,0,1,1.57-9.54,20.36,20.36,0,0,1,4.57-7.36,19.7,19.7,0,0,1,7.33-4.67,27.68,27.68,0,0,1,9.7-1.6,28.8,28.8,0,0,1,6.59.77,19.66,19.66,0,0,1,5.7,2.24,5.15,5.15,0,0,1,2.17,2.27A4.45,4.45,0,0,1,61,84.7,4.66,4.66,0,0,1,59.87,87a4,4,0,0,1-2.15,1.28,4.07,4.07,0,0,1-2.88-.61,14.31,14.31,0,0,0-4-1.66,18.12,18.12,0,0,0-4.32-.52,14.1,14.1,0,0,0-7.2,1.7A10.51,10.51,0,0,0,35,92.06,19.15,19.15,0,0,0,33.53,100,19.44,19.44,0,0,0,35,107.84a10.42,10.42,0,0,0,4.35,5,14.1,14.1,0,0,0,7.2,1.7,17.54,17.54,0,0,0,4.19-.52,16.28,16.28,0,0,0,4.13-1.6,4.83,4.83,0,0,1,2.95-.6,3.73,3.73,0,0,1,2.14,1.15,4.55,4.55,0,0,1,.86,4.8,4.69,4.69,0,0,1-1.92,2.14,19.1,19.1,0,0,1-5.82,2.47A28.19,28.19,0,0,1,46.14,123.2Z"></path><path class="cls-1" d="M85.11,123.07a5.25,5.25,0,0,1-3.29-1,6.15,6.15,0,0,1-1.95-3L66.94,82.75a4.25,4.25,0,0,1,.29-4.13c.78-1.13,2.14-1.69,4.06-1.69a4.93,4.93,0,0,1,3.26,1,6.22,6.22,0,0,1,1.8,3l10.49,31.42H84.09L95.29,80.9a6.67,6.67,0,0,1,1.85-3,4.55,4.55,0,0,1,3-1,4.18,4.18,0,0,1,2.88,1,7,7,0,0,1,1.8,3.07l10.68,31.36h-2.37L123.83,80.9a6.59,6.59,0,0,1,1.86-3,4.75,4.75,0,0,1,3.14-1,4.07,4.07,0,0,1,3.64,1.69,4.33,4.33,0,0,1,.26,4.13l-13,36.35a7.37,7.37,0,0,1-2,3,5,5,0,0,1-3.23,1,5.26,5.26,0,0,1-3.3-1,6.22,6.22,0,0,1-2-3L99.13,90.5h1.54L90.36,119.1a6.84,6.84,0,0,1-2,3A5.11,5.11,0,0,1,85.11,123.07Z"></path><path class="cls-1" d="M162.36,123.2a25.62,25.62,0,0,1-12.45-2.85,19.17,19.17,0,0,1-8-8.09A26.06,26.06,0,0,1,139.19,100a27.75,27.75,0,0,1,1.57-9.54,20.38,20.38,0,0,1,4.58-7.36,19.62,19.62,0,0,1,7.33-4.67,27.66,27.66,0,0,1,9.69-1.6,28.74,28.74,0,0,1,6.59.77,19.55,19.55,0,0,1,5.7,2.24,5.18,5.18,0,0,1,2.18,2.27,4.53,4.53,0,0,1,.35,2.62A4.6,4.6,0,0,1,176.09,87,3.93,3.93,0,0,1,174,88.29a4.06,4.06,0,0,1-2.88-.61,14.44,14.44,0,0,0-4-1.66,18.12,18.12,0,0,0-4.32-.52,14.1,14.1,0,0,0-7.2,1.7,10.47,10.47,0,0,0-4.36,4.86,19.15,19.15,0,0,0-1.44,7.91,19.44,19.44,0,0,0,1.44,7.87,10.38,10.38,0,0,0,4.36,5,14.1,14.1,0,0,0,7.2,1.7,17.6,17.6,0,0,0,4.19-.52,16.43,16.43,0,0,0,4.13-1.6,4.8,4.8,0,0,1,2.94-.6,3.7,3.7,0,0,1,2.14,1.15,4.58,4.58,0,0,1,.87,4.8,4.69,4.69,0,0,1-1.92,2.14,19.16,19.16,0,0,1-5.83,2.47A28.13,28.13,0,0,1,162.36,123.2Z"></path><path class="cls-1" d="M45.81,82a25.62,25.62,0,0,1-12.45-2.85,19.19,19.19,0,0,1-8-8.09A26.18,26.18,0,0,1,22.64,58.8a27.51,27.51,0,0,1,1.57-9.54,20.33,20.33,0,0,1,4.58-7.36,19.7,19.7,0,0,1,7.32-4.67,28,28,0,0,1,9.7-1.6,28.74,28.74,0,0,1,6.59.77,19.55,19.55,0,0,1,5.7,2.24,5.15,5.15,0,0,1,2.17,2.27,4.57,4.57,0,0,1,.36,2.63,4.69,4.69,0,0,1-1.09,2.3,3.92,3.92,0,0,1-2.15,1.28,4.07,4.07,0,0,1-2.88-.61,14.31,14.31,0,0,0-4-1.66,18,18,0,0,0-4.32-.51A14.1,14.1,0,0,0,39,46a10.48,10.48,0,0,0-4.35,4.87,19.07,19.07,0,0,0-1.44,7.9,19.44,19.44,0,0,0,1.44,7.87,10.42,10.42,0,0,0,4.35,5,14.1,14.1,0,0,0,7.2,1.7,18,18,0,0,0,4.19-.51,17.07,17.07,0,0,0,4.13-1.6,4.77,4.77,0,0,1,3-.61,3.7,3.7,0,0,1,2.14,1.15A4.46,4.46,0,0,1,60.72,74a4.33,4.33,0,0,1-.26,2.56,4.67,4.67,0,0,1-1.91,2.14,19.26,19.26,0,0,1-5.83,2.47A28.19,28.19,0,0,1,45.81,82Z"></path><path class="cls-1" d="M84.78,81.9a5.25,5.25,0,0,1-3.29-1,6.23,6.23,0,0,1-1.95-3L66.61,41.58a4.25,4.25,0,0,1,.29-4.12c.79-1.13,2.14-1.7,4.06-1.7a4.93,4.93,0,0,1,3.26,1,6.22,6.22,0,0,1,1.8,3L86.51,71.15H83.76L95,39.73a6.59,6.59,0,0,1,1.86-3,4.52,4.52,0,0,1,3-1,4.22,4.22,0,0,1,2.89,1,7,7,0,0,1,1.79,3.07l10.68,31.36h-2.36l10.69-31.42a6.5,6.5,0,0,1,1.85-3,4.75,4.75,0,0,1,3.14-1,4.08,4.08,0,0,1,3.64,1.7,4.31,4.31,0,0,1,.26,4.12l-13,36.36a7.4,7.4,0,0,1-2,3,5,5,0,0,1-3.23,1,5.3,5.3,0,0,1-3.3-1,6.23,6.23,0,0,1-2-3L98.8,49.33h1.54L90,77.94a6.86,6.86,0,0,1-2,3A5.11,5.11,0,0,1,84.78,81.9Z"></path><path class="cls-1" d="M162,82a25.55,25.55,0,0,1-12.44-2.85,19.14,19.14,0,0,1-8-8.09,26.06,26.06,0,0,1-2.75-12.29,27.75,27.75,0,0,1,1.56-9.54A20.47,20.47,0,0,1,145,41.9a19.74,19.74,0,0,1,7.33-4.67,27.89,27.89,0,0,1,9.69-1.6,28.89,28.89,0,0,1,6.6.77,19.6,19.6,0,0,1,5.69,2.24,5.18,5.18,0,0,1,2.18,2.27,4.58,4.58,0,0,1-.74,4.93,3.93,3.93,0,0,1-2.14,1.28,4.06,4.06,0,0,1-2.88-.61,14.44,14.44,0,0,0-4-1.66,18.12,18.12,0,0,0-4.32-.51,14.1,14.1,0,0,0-7.2,1.69,10.48,10.48,0,0,0-4.35,4.87,19.06,19.06,0,0,0-1.45,7.9,19.44,19.44,0,0,0,1.45,7.87,10.42,10.42,0,0,0,4.35,5,14.1,14.1,0,0,0,7.2,1.7,18.1,18.1,0,0,0,4.19-.51,17.23,17.23,0,0,0,4.13-1.6,4.75,4.75,0,0,1,2.94-.61,3.76,3.76,0,0,1,2.15,1.15A4.62,4.62,0,0,1,177,74a4.41,4.41,0,0,1-.26,2.56,4.64,4.64,0,0,1-1.92,2.14A19.1,19.1,0,0,1,169,81.17,28.27,28.27,0,0,1,162,82Z"></path><path class="cls-1" d="M46.14,163.36a25.61,25.61,0,0,1-12.45-2.84,19.22,19.22,0,0,1-8-8.1A26.15,26.15,0,0,1,23,140.13a27.45,27.45,0,0,1,1.57-9.53,20.27,20.27,0,0,1,4.57-7.36,19.72,19.72,0,0,1,7.33-4.68,27.91,27.91,0,0,1,9.7-1.6,28.8,28.8,0,0,1,6.59.77,19.66,19.66,0,0,1,5.7,2.24,5.15,5.15,0,0,1,2.17,2.27,4.48,4.48,0,0,1,.35,2.63,4.67,4.67,0,0,1-1.08,2.3,4,4,0,0,1-2.15,1.28,4.07,4.07,0,0,1-2.88-.61,14.62,14.62,0,0,0-4-1.66,18.12,18.12,0,0,0-4.32-.51,14.1,14.1,0,0,0-7.2,1.69A10.58,10.58,0,0,0,35,132.23a19.1,19.1,0,0,0-1.44,7.9A19.41,19.41,0,0,0,35,148a10.42,10.42,0,0,0,4.35,5,14.1,14.1,0,0,0,7.2,1.7,18,18,0,0,0,4.19-.51,16.67,16.67,0,0,0,4.13-1.6,4.77,4.77,0,0,1,2.95-.61,3.73,3.73,0,0,1,2.14,1.15,4.46,4.46,0,0,1,1.12,2.24,4.4,4.4,0,0,1-.26,2.56A4.71,4.71,0,0,1,58.87,160a19.34,19.34,0,0,1-5.82,2.46A27.72,27.72,0,0,1,46.14,163.36Z"></path><path class="cls-1" d="M85.11,163.24a5.25,5.25,0,0,1-3.29-1,6.2,6.2,0,0,1-1.95-3L66.94,122.92a4.24,4.24,0,0,1,.29-4.13c.78-1.13,2.14-1.7,4.06-1.7a4.93,4.93,0,0,1,3.26,1,6.27,6.27,0,0,1,1.8,3l10.49,31.42H84.09l11.2-31.42a6.72,6.72,0,0,1,1.85-3,4.55,4.55,0,0,1,3-1,4.18,4.18,0,0,1,2.88,1,7.06,7.06,0,0,1,1.8,3.07l10.68,31.36h-2.37l10.69-31.42a6.65,6.65,0,0,1,1.86-3,4.75,4.75,0,0,1,3.14-1,4.08,4.08,0,0,1,3.64,1.7,4.33,4.33,0,0,1,.26,4.13l-13,36.35a7.44,7.44,0,0,1-2,3,5,5,0,0,1-3.23,1,5.26,5.26,0,0,1-3.3-1,6.27,6.27,0,0,1-2-3L99.13,130.66h1.54L90.36,159.27a6.9,6.9,0,0,1-2,3A5.11,5.11,0,0,1,85.11,163.24Z"></path><path class="cls-1" d="M162.36,163.36a25.61,25.61,0,0,1-12.45-2.84,19.19,19.19,0,0,1-8-8.1,26,26,0,0,1-2.76-12.29,27.69,27.69,0,0,1,1.57-9.53,20.29,20.29,0,0,1,4.58-7.36,19.64,19.64,0,0,1,7.33-4.68,27.89,27.89,0,0,1,9.69-1.6,28.74,28.74,0,0,1,6.59.77,19.55,19.55,0,0,1,5.7,2.24,5.18,5.18,0,0,1,2.18,2.27,4.58,4.58,0,0,1-.74,4.93,3.93,3.93,0,0,1-2.14,1.28,4.06,4.06,0,0,1-2.88-.61,14.74,14.74,0,0,0-4-1.66,18.12,18.12,0,0,0-4.32-.51,14.1,14.1,0,0,0-7.2,1.69,10.55,10.55,0,0,0-4.36,4.87,19.1,19.1,0,0,0-1.44,7.9,19.41,19.41,0,0,0,1.44,7.87,10.38,10.38,0,0,0,4.36,5,14.1,14.1,0,0,0,7.2,1.7,18.1,18.1,0,0,0,4.19-.51,16.82,16.82,0,0,0,4.13-1.6,4.74,4.74,0,0,1,2.94-.61,3.7,3.7,0,0,1,2.14,1.15,4.46,4.46,0,0,1,1.12,2.24,4.4,4.4,0,0,1-.25,2.56A4.71,4.71,0,0,1,175.1,160a19.4,19.4,0,0,1-5.83,2.46A27.66,27.66,0,0,1,162.36,163.36Z"></path><path class="cls-2" d="M46.14,123.2a25.62,25.62,0,0,1-12.45-2.85,19.19,19.19,0,0,1-8-8.09A26.18,26.18,0,0,1,23,100a27.51,27.51,0,0,1,1.57-9.54,20.36,20.36,0,0,1,4.57-7.36,19.7,19.7,0,0,1,7.33-4.67,27.68,27.68,0,0,1,9.7-1.6,28.8,28.8,0,0,1,6.59.77,19.66,19.66,0,0,1,5.7,2.24,5.15,5.15,0,0,1,2.17,2.27A4.45,4.45,0,0,1,61,84.7,4.66,4.66,0,0,1,59.87,87a4,4,0,0,1-2.15,1.28,4.07,4.07,0,0,1-2.88-.61,14.31,14.31,0,0,0-4-1.66,18.12,18.12,0,0,0-4.32-.52,14.1,14.1,0,0,0-7.2,1.7A10.51,10.51,0,0,0,35,92.06,19.15,19.15,0,0,0,33.53,100,19.44,19.44,0,0,0,35,107.84a10.42,10.42,0,0,0,4.35,5,14.1,14.1,0,0,0,7.2,1.7,17.54,17.54,0,0,0,4.19-.52,16.28,16.28,0,0,0,4.13-1.6,4.83,4.83,0,0,1,2.95-.6,3.73,3.73,0,0,1,2.14,1.15,4.55,4.55,0,0,1,.86,4.8,4.69,4.69,0,0,1-1.92,2.14,19.1,19.1,0,0,1-5.82,2.47A28.19,28.19,0,0,1,46.14,123.2Z"></path><path class="cls-2" d="M85.11,123.07a5.25,5.25,0,0,1-3.29-1,6.15,6.15,0,0,1-1.95-3L66.94,82.75a4.25,4.25,0,0,1,.29-4.13c.78-1.13,2.14-1.69,4.06-1.69a4.93,4.93,0,0,1,3.26,1,6.22,6.22,0,0,1,1.8,3l10.49,31.42H84.09L95.29,80.9a6.67,6.67,0,0,1,1.85-3,4.55,4.55,0,0,1,3-1,4.18,4.18,0,0,1,2.88,1,7,7,0,0,1,1.8,3.07l10.68,31.36h-2.37L123.83,80.9a6.59,6.59,0,0,1,1.86-3,4.75,4.75,0,0,1,3.14-1,4.07,4.07,0,0,1,3.64,1.69,4.33,4.33,0,0,1,.26,4.13l-13,36.35a7.37,7.37,0,0,1-2,3,5,5,0,0,1-3.23,1,5.26,5.26,0,0,1-3.3-1,6.22,6.22,0,0,1-2-3L99.13,90.5h1.54L90.36,119.1a6.84,6.84,0,0,1-2,3A5.11,5.11,0,0,1,85.11,123.07Z"></path><path class="cls-2" d="M162.36,123.2a25.62,25.62,0,0,1-12.45-2.85,19.17,19.17,0,0,1-8-8.09A26.06,26.06,0,0,1,139.19,100a27.75,27.75,0,0,1,1.57-9.54,20.38,20.38,0,0,1,4.58-7.36,19.62,19.62,0,0,1,7.33-4.67,27.66,27.66,0,0,1,9.69-1.6,28.74,28.74,0,0,1,6.59.77,19.55,19.55,0,0,1,5.7,2.24,5.18,5.18,0,0,1,2.18,2.27,4.53,4.53,0,0,1,.35,2.62A4.6,4.6,0,0,1,176.09,87,3.93,3.93,0,0,1,174,88.29a4.06,4.06,0,0,1-2.88-.61,14.44,14.44,0,0,0-4-1.66,18.12,18.12,0,0,0-4.32-.52,14.1,14.1,0,0,0-7.2,1.7,10.47,10.47,0,0,0-4.36,4.86,19.15,19.15,0,0,0-1.44,7.91,19.44,19.44,0,0,0,1.44,7.87,10.38,10.38,0,0,0,4.36,5,14.1,14.1,0,0,0,7.2,1.7,17.6,17.6,0,0,0,4.19-.52,16.43,16.43,0,0,0,4.13-1.6,4.8,4.8,0,0,1,2.94-.6,3.7,3.7,0,0,1,2.14,1.15,4.58,4.58,0,0,1,.87,4.8,4.69,4.69,0,0,1-1.92,2.14,19.16,19.16,0,0,1-5.83,2.47A28.13,28.13,0,0,1,162.36,123.2Z"></path></svg></g></g></svg></g></svg>